<svg width="8978" height="4046" viewBox="0 0 8978 4046" fill="none" xmlns="http://www.w3.org/2000/svg">
<path d="M1473.44 2092.31C1737.71 2092.31 1951.94 2306.54 1951.94 2570.81C1951.94 2835.08 1737.71 3049.31 1473.44 3049.31C1446.34 3049.31 1419.77 3047.06 1393.91 3042.73L1595.49 2797.82C1676.25 2754.31 1731.13 2668.97 1731.13 2570.81C1731.13 2428.49 1615.76 2313.12 1473.44 2313.12C1331.12 2313.12 1215.75 2428.49 1215.75 2570.81C1215.75 2698.61 1308.78 2804.68 1430.81 2824.99L1279.77 3008.5C1111.99 2934.15 994.938 2766.15 994.938 2570.81C994.938 2306.54 1209.17 2092.31 1473.44 2092.31Z" fill="#FAC12E"/>
<path d="M1364.45 2739.31L1393.13 2615.08L1296.94 2531.52L1424.02 2520.47L1473.44 2403.31L1522.86 2520.47L1649.94 2531.52L1553.75 2615.08L1582.43 2739.31L1473.44 2673.44L1364.45 2739.31Z" fill="#FAC12E"/>
<path d="M867.438 1623.31C759.772 1796.65 566.938 2226.11 656.938 2557.31C587.438 2623.31 546.938 2642.81 477.938 2795.81C460.438 2732.81 298.938 2268.31 867.438 1623.31Z" fill="#0B2F68"/>
<path d="M1902.44 1106.81C2020.84 1035.21 2030.44 858.98 2020.44 779.813C2160.44 954.813 2373.44 1230.31 2566.44 1503.31C2671.94 1659.07 2736.23 1797.43 2749.44 1831.81C2581.04 1636.21 2350.94 1562.98 2256.94 1550.81C2165.44 1437.65 1966.44 1190.41 1902.44 1106.81Z" fill="#CC1C29"/>
<path d="M185.938 3296.31C270.272 3398.48 526.038 3604.41 874.438 3610.81C917.438 3634.81 1294.94 3812.31 1720.94 3610.81C2146.94 3409.31 2451.44 3044.81 2475.44 2537.31C2490.94 2835.81 2532.44 3470.31 1779.44 3859.81C941.438 4237.31 367.938 3669.81 185.938 3296.31Z" fill="#CC1C29"/>
<path d="M1573.44 4045.31C1787.44 3974.81 2309.81 3734.68 2551.94 3069.31C2805.94 2371.31 2439.44 2012.81 2375.94 1925.31C2142.44 1736.31 2155.34 1784.31 1976.94 1768.31C1798.54 1752.31 1619.94 1806.15 1552.94 1838.31C1657.94 1696.81 1956.24 1540.01 2337.44 1658.81C2820.94 1862.31 2891.32 2197.31 2928.94 2449.31C2966.56 2701.31 2891.94 3207.41 2551.94 3579.81C2207.94 3952.21 1756.27 4045.31 1573.44 4045.31Z" fill="#CC1C29"/>
<path d="M949.057 2415.54C934.357 2466.15 926.874 2519.79 927.785 2575.24C928.526 2620.34 934.777 2664.06 945.884 2705.77L802.047 2844.68C691.88 2951.08 688.823 3126.64 795.218 3236.8C901.614 3346.97 1077.17 3350.03 1187.34 3243.63L1344.16 3092.18C1386.63 3102.12 1430.99 3107.05 1476.58 3106.3C1538.56 3105.28 1597.92 3093.86 1653.04 3073.73L1341.14 3374.95C1149.96 3559.59 845.298 3554.28 660.662 3363.1C476.026 3171.92 481.332 2867.26 672.513 2682.62L949.057 2415.54ZM1601.72 1785.22C1792.9 1600.59 2097.56 1605.89 2282.2 1797.07C2466.84 1988.26 2461.53 2292.92 2270.35 2477.55L1968.29 2769.27C1994.79 2703.98 2008.87 2632.4 2007.64 2557.5C2007.1 2524.59 2003.62 2492.42 1997.47 2461.24L2135.49 2327.94C2245.66 2221.54 2248.72 2045.98 2142.32 1935.82C2035.93 1825.65 1860.37 1822.59 1750.2 1928.99L1625.21 2049.7C1572.65 2033.69 1516.73 2025.49 1458.84 2026.44C1416.14 2027.15 1374.69 2032.79 1335 2042.81L1601.72 1785.22Z" fill="#0B2F68"/>
<path d="M2395.44 3.31284C2417.44 -2.68701 2488.27 0.812858 2520.94 3.31284L3007.94 39.8128L2984.44 228.813C2836.61 216.813 2527.64 195.213 2474.44 204.813C2421.24 214.413 2159.27 344.813 2034.94 408.813V472.313C2035.6 478.98 2032.54 496.513 2014.94 513.313C1997.34 530.113 1936.94 570.98 1908.94 589.313C1918.77 677.813 1938.44 858.013 1938.44 870.813C1938.44 886.813 1934.94 946.813 1807.94 1107.81C1706.34 1236.61 1484.27 1503.48 1385.94 1620.81C1354.77 1664.31 1267.64 1734.91 1168.44 1669.31C1069.24 1603.71 887.105 1466.98 808.438 1406.81C669.604 1554.31 398.938 1940.81 307.938 2298.81C217.815 2653.36 324.938 2898.98 375.438 2974.31C458.938 3156.65 760.738 3499.31 1299.94 3411.31C1140.6 3527.31 685.687 3688.87 272.438 3268.81C-182.562 2806.31 33.9378 2109.81 196.438 1799.81C358.938 1489.81 588.438 1235.81 588.438 1235.81C583.938 1228.65 579.638 1208.71 598.438 1186.31C617.239 1163.91 882.605 839.646 1012.94 680.313C1022.44 671.813 1037.14 649.313 1019.94 627.313C1002.74 605.313 985.771 578.813 979.438 568.313C973.938 562.813 967.938 543.913 987.938 512.313C1012.94 472.813 1094.94 372.313 1202.44 296.813C1288.44 236.413 1389.94 175.98 1429.94 153.313C1448.44 140.646 1497.44 122.913 1545.44 153.313C1593.44 183.713 1643.1 220.98 1661.94 235.813L1673.44 246.313C1678.27 250.646 1694.34 255.313 1719.94 239.313C1745.54 223.313 1802.27 200.313 1827.44 190.813C1843.27 181.646 1881.74 171.613 1908.94 204.813C1925.08 224.522 1931.69 232.989 1933.7 235.883C1933.38 235.889 1933.12 235.863 1932.94 235.813C1934.29 237.235 1935.07 237.864 1933.7 235.883C1936.61 235.832 1945.31 233.245 1962.94 222.813C1982.54 211.213 2210.44 95.9795 2321.94 39.8128C2337.27 30.1461 2373.44 9.31281 2395.44 3.31284ZM1588.44 1060.81C1552.1 1049.15 1467.74 1026.71 1420.94 1030.31C1374.14 1033.91 1339.44 1099.48 1327.94 1131.81L1213.94 1475.31C1211.77 1479.31 1208.74 1488.11 1213.94 1491.31C1219.14 1494.51 1270.1 1492.65 1294.94 1491.31C1387.27 1382.15 1573.64 1157.41 1580.44 1131.81C1587.24 1106.21 1588.6 1073.81 1588.44 1060.81ZM1480.44 854.314C1440.24 820.815 1421.94 812.313 1348.94 814.313C1287.83 815.987 1228.94 879.48 1202.44 915.814L911.439 1260.31L1122.94 1451.81L1233.44 1099.81C1244.27 1069.65 1274.74 1002.61 1307.94 969.814C1341.14 937.014 1380.77 928.147 1397.94 928.314H1548.94C1535.11 909.481 1507.44 876.813 1480.44 854.314Z" fill="#0B2F68"/>
<path d="M8474.31 2065L8687.18 1779.08H8952.95L8660.73 2131.76L8955.47 2481.92H8688.44L8474.31 2187.18V2221.63C8433.83 2266.18 8360.88 2322.67 8258.92 2365.01V1549.83H8474.31V2065Z" fill="#0B2F68"/>
<path d="M7838.44 1771.52C7920.73 1771.52 7986.23 1798.39 8034.93 1852.13C8084.48 1905.04 8109.25 1978.09 8109.25 2071.3V2410.17C8044.84 2422.91 7973.31 2429.03 7895.12 2425.12V2100.27C7895.12 2053.25 7882.94 2016.72 7858.59 1990.69C7834.24 1964.66 7801.49 1951.64 7760.34 1951.64C7719.2 1951.64 7686.45 1964.66 7662.1 1990.69C7637.74 2016.72 7625.57 2053.25 7625.57 2100.27V2375.03C7604.79 2368.47 7583.69 2361.21 7562.28 2353.2C7509.4 2333.43 7458.73 2317.12 7410.18 2303.92V1779.08H7625.57V1872.29C7647.4 1841.22 7676.79 1816.87 7713.74 1799.23C7750.69 1780.76 7792.25 1771.52 7838.44 1771.52Z" fill="#0B2F68"/>
<path d="M7254.09 2270.71C7176.09 2258.98 7104.46 2255.89 7038.7 2259.54V1779.08H7254.09V2270.71ZM7147.03 1473C7183.97 1473 7214.2 1484.34 7237.72 1507.01C7262.07 1528.84 7274.24 1556.55 7274.24 1590.14C7274.24 1622.89 7262.07 1650.6 7237.72 1673.27C7214.2 1695.11 7183.97 1706.02 7147.03 1706.02C7109.24 1706.02 7078.17 1695.11 7053.82 1673.27C7030.31 1650.6 7018.55 1622.89 7018.55 1590.14C7018.55 1556.55 7030.31 1528.84 7053.82 1507.01C7078.17 1484.34 7109.24 1473 7147.03 1473Z" fill="#0B2F68"/>
<path d="M6882.61 2282.53C6799.43 2303 6728.19 2334.75 6667.22 2371.58V1549.83H6882.61V2282.53Z" fill="#0B2F68"/>
<path d="M6185.16 2492C6116.3 2492 6054.16 2477.3 5998.74 2447.91C5944.16 2418.52 5900.92 2376.54 5869.01 2321.96C5837.94 2267.37 5822.4 2203.56 5822.4 2130.5C5822.4 2058.28 5838.36 1994.89 5870.27 1940.3C5902.17 1884.88 5945.84 1842.48 6001.26 1813.09C6056.68 1783.7 6118.82 1769 6187.68 1769C6256.54 1769 6318.68 1783.7 6374.1 1813.09C6429.52 1842.48 6473.18 1884.88 6505.09 1940.3C6537 1994.89 6552.96 2058.28 6552.96 2130.5C6552.96 2202.72 6536.58 2266.54 6503.83 2321.96C6471.92 2376.54 6427.84 2418.52 6371.58 2447.91C6316.16 2477.3 6254.02 2492 6185.16 2492ZM6185.16 2305.58C6226.31 2305.58 6261.15 2290.47 6289.71 2260.24C6319.1 2230.01 6333.79 2186.76 6333.79 2130.5C6333.79 2074.24 6319.52 2030.99 6290.96 2000.76C6263.25 1970.53 6228.83 1955.42 6187.68 1955.42C6145.69 1955.42 6110.85 1970.53 6083.13 2000.76C6055.42 2030.15 6041.57 2073.4 6041.57 2130.5C6041.57 2186.76 6055 2230.01 6081.87 2260.24C6109.59 2290.47 6144.01 2305.58 6185.16 2305.58Z" fill="#0B2F68"/>
<path d="M5448.79 2492C5387.49 2492 5332.91 2481.5 5285.04 2460.51C5237.18 2439.52 5199.39 2410.97 5171.68 2374.86C5143.97 2337.91 5128.44 2296.77 5125.08 2251.42H5337.95C5340.46 2275.77 5351.8 2295.51 5371.95 2310.62C5392.11 2325.74 5416.88 2333.29 5446.27 2333.29C5473.14 2333.29 5493.71 2328.25 5507.99 2318.18C5523.1 2307.26 5530.66 2293.41 5530.66 2276.61C5530.66 2256.46 5520.16 2241.76 5499.17 2232.53C5478.18 2222.45 5444.17 2211.53 5397.15 2199.78C5346.76 2188.02 5304.78 2175.85 5271.19 2163.25C5237.6 2149.81 5208.63 2129.24 5184.28 2101.53C5159.92 2072.98 5147.75 2034.77 5147.75 1986.91C5147.75 1946.6 5158.67 1910.07 5180.5 1877.33C5203.17 1843.74 5235.92 1817.29 5278.75 1797.97C5322.41 1778.66 5374.05 1769 5433.67 1769C5521.84 1769 5591.12 1790.83 5641.5 1834.5C5692.73 1878.16 5722.12 1936.11 5729.67 2008.32H5530.66C5527.3 1983.97 5516.39 1964.66 5497.91 1950.38C5480.28 1936.11 5456.77 1928.97 5427.38 1928.97C5402.18 1928.97 5382.87 1934.01 5369.44 1944.08C5356 1953.32 5349.28 1966.34 5349.28 1983.13C5349.28 2003.28 5359.78 2018.4 5380.77 2028.47C5402.6 2038.55 5436.19 2048.63 5481.54 2058.7C5533.6 2072.14 5576.01 2085.58 5608.76 2099.01C5641.5 2111.61 5670.05 2132.6 5694.41 2161.99C5719.6 2190.54 5732.61 2229.17 5733.45 2277.87C5733.45 2319.02 5721.7 2355.97 5698.19 2388.71C5675.51 2420.62 5642.34 2445.82 5598.68 2464.29C5555.85 2482.76 5505.89 2492 5448.79 2492Z" fill="#0B2F68"/>
<path d="M4265.15 2129.24C4265.15 2057.03 4278.58 1993.63 4305.45 1939.04C4333.16 1884.46 4370.53 1842.48 4417.56 1813.09C4464.58 1783.7 4517.06 1769 4575 1769C4624.55 1769 4667.79 1779.08 4704.74 1799.23C4742.53 1819.38 4771.5 1845.84 4791.65 1878.58V1779.08H5007.04V2481.92H4791.65V2382.42C4770.66 2415.17 4741.27 2441.62 4703.48 2461.77C4666.53 2481.92 4623.29 2492 4573.74 2492C4516.64 2492 4464.58 2477.3 4417.56 2447.91C4370.53 2417.68 4333.16 2375.28 4305.45 2320.7C4278.58 2265.28 4265.15 2201.46 4265.15 2129.24ZM4791.65 2130.5C4791.65 2076.76 4776.54 2034.35 4746.31 2003.28C4716.92 1972.21 4680.81 1956.68 4637.98 1956.68C4595.16 1956.68 4558.63 1972.21 4528.4 2003.28C4499.01 2033.51 4484.31 2075.5 4484.31 2129.24C4484.31 2182.98 4499.01 2225.81 4528.4 2257.72C4558.63 2288.79 4595.16 2304.32 4637.98 2304.32C4680.81 2304.32 4716.92 2288.79 4746.31 2257.72C4776.54 2226.65 4791.65 2184.24 4791.65 2130.5Z" fill="#0B2F68"/>
<path d="M3935.49 1877.33C3919.54 1847.93 3896.44 1825.68 3866.22 1810.57C3836.82 1794.61 3801.98 1786.64 3761.67 1786.64C3691.97 1786.64 3636.13 1809.73 3594.15 1855.91C3552.16 1901.26 3531.17 1962.14 3531.17 2038.55C3531.17 2120 3553 2183.82 3596.66 2230.01C3641.17 2275.35 3702.05 2298.02 3779.3 2298.02C3832.21 2298.02 3876.71 2284.59 3912.82 2257.72C3949.77 2230.85 3976.64 2192.22 3993.43 2141.84H3720.1V1983.13H4188.67V2183.4C4172.71 2237.15 4145.42 2287.11 4106.79 2333.29C4069.01 2379.48 4020.72 2416.85 3961.94 2445.4C3903.16 2473.95 3836.82 2488.22 3762.93 2488.22C3675.6 2488.22 3597.5 2469.33 3528.65 2431.54C3460.63 2392.91 3407.31 2339.59 3368.68 2271.57C3330.89 2203.56 3312 2125.88 3312 2038.55C3312 1951.22 3330.89 1873.55 3368.68 1805.53C3407.31 1736.67 3460.63 1683.35 3528.65 1645.56C3596.67 1606.94 3674.34 1587.62 3761.67 1587.62C3867.47 1587.62 3956.48 1613.23 4028.7 1664.46C4101.76 1715.68 4150.04 1786.64 4173.55 1877.33H3935.49Z" fill="#0B2F68"/>
<path d="M6392 2684.13C6532.51 2582.43 6996.55 2482.12 7515.58 2658.99C8120.98 2865.29 8376.08 2509.04 8488 2288C8397.15 2393.75 8066.47 2600.05 7564.28 2424.09C6818.61 2162.82 6512.64 2545.44 6392 2684.13Z" fill="#CC1C29"/>
<path d="M3573.5 2938V3006.5H3430.5V3080.5H3537.5V3147H3430.5V3289H3345V2938H3573.5ZM3717.44 2938V3148C3717.44 3169 3722.6 3185.17 3732.94 3196.5C3743.27 3207.83 3758.44 3213.5 3778.44 3213.5C3798.44 3213.5 3813.77 3207.83 3824.44 3196.5C3835.1 3185.17 3840.44 3169 3840.44 3148V2938H3925.94V3147.5C3925.94 3178.83 3919.27 3205.33 3905.94 3227C3892.6 3248.67 3874.6 3265 3851.94 3276C3829.6 3287 3804.6 3292.5 3776.94 3292.5C3749.27 3292.5 3724.44 3287.17 3702.44 3276.5C3680.77 3265.5 3663.6 3249.17 3650.94 3227.5C3638.27 3205.5 3631.94 3178.83 3631.94 3147.5V2938H3717.44ZM4086.48 3006.5V3077.5H4200.98V3143.5H4086.48V3220.5H4215.98V3289H4000.98V2938H4215.98V3006.5H4086.48ZM4371.98 3223H4483.98V3289H4286.48V2938H4371.98V3223ZM4792.22 2938C4829.22 2938 4861.56 2945.33 4889.22 2960C4916.89 2974.67 4938.22 2995.33 4953.22 3022C4968.56 3048.33 4976.22 3078.83 4976.22 3113.5C4976.22 3147.83 4968.56 3178.33 4953.22 3205C4938.22 3231.67 4916.72 3252.33 4888.72 3267C4861.06 3281.67 4828.89 3289 4792.22 3289H4660.72V2938H4792.22ZM4786.72 3215C4819.06 3215 4844.22 3206.17 4862.22 3188.5C4880.22 3170.83 4889.22 3145.83 4889.22 3113.5C4889.22 3081.17 4880.22 3056 4862.22 3038C4844.22 3020 4819.06 3011 4786.72 3011H4746.22V3215H4786.72ZM5257.5 3227H5126.5L5105.5 3289H5016L5143 2938H5242L5369 3289H5278.5L5257.5 3227ZM5235.5 3161L5192 3032.5L5149 3161H5235.5ZM5675.16 2938V3006.5H5582.16V3289H5496.66V3006.5H5403.66V2938H5675.16ZM5951.57 3227H5820.57L5799.57 3289H5710.07L5837.07 2938H5936.07L6063.07 3289H5972.57L5951.57 3227ZM5929.57 3161L5886.07 3032.5L5843.07 3161H5929.57ZM6505.18 3051C6505.18 3071.33 6500.51 3090 6491.18 3107C6481.84 3123.67 6467.51 3137.17 6448.18 3147.5C6428.84 3157.83 6404.84 3163 6376.18 3163H6323.18V3289H6237.68V2938H6376.18C6404.18 2938 6427.84 2942.83 6447.18 2952.5C6466.51 2962.17 6481.01 2975.5 6490.68 2992.5C6500.34 3009.5 6505.18 3029 6505.18 3051ZM6369.68 3095C6386.01 3095 6398.18 3091.17 6406.18 3083.5C6414.18 3075.83 6418.18 3065 6418.18 3051C6418.18 3037 6414.18 3026.17 6406.18 3018.5C6398.18 3010.83 6386.01 3007 6369.68 3007H6323.18V3095H6369.68ZM6650.19 3223H6762.19V3289H6564.69V2938H6650.19V3223ZM7036.47 3227H6905.47L6884.47 3289H6794.97L6921.97 2938H7020.97L7147.97 3289H7057.47L7036.47 3227ZM7014.47 3161L6970.97 3032.5L6927.97 3161H7014.47ZM7454.12 2938V3006.5H7361.12V3289H7275.62V3006.5H7182.62V2938H7454.12ZM7740.53 2938V3006.5H7597.53V3080.5H7704.53V3147H7597.53V3289H7512.03V2938H7740.53ZM7966.47 3292.5C7933.47 3292.5 7903.14 3284.83 7875.47 3269.5C7848.14 3254.17 7826.3 3232.83 7809.97 3205.5C7793.97 3177.83 7785.97 3146.83 7785.97 3112.5C7785.97 3078.17 7793.97 3047.33 7809.97 3020C7826.3 2992.67 7848.14 2971.33 7875.47 2956C7903.14 2940.67 7933.47 2933 7966.47 2933C7999.47 2933 8029.64 2940.67 8056.97 2956C8084.64 2971.33 8106.3 2992.67 8121.97 3020C8137.97 3047.33 8145.97 3078.17 8145.97 3112.5C8145.97 3146.83 8137.97 3177.83 8121.97 3205.5C8105.97 3232.83 8084.3 3254.17 8056.97 3269.5C8029.64 3284.83 7999.47 3292.5 7966.47 3292.5ZM7966.47 3214.5C7994.47 3214.5 8016.8 3205.17 8033.47 3186.5C8050.47 3167.83 8058.97 3143.17 8058.97 3112.5C8058.97 3081.5 8050.47 3056.83 8033.47 3038.5C8016.8 3019.83 7994.47 3010.5 7966.47 3010.5C7938.14 3010.5 7915.47 3019.67 7898.47 3038C7881.8 3056.33 7873.47 3081.17 7873.47 3112.5C7873.47 3143.5 7881.8 3168.33 7898.47 3187C7915.47 3205.33 7938.14 3214.5 7966.47 3214.5ZM8387.54 3289L8314.54 3156.5H8294.04V3289H8208.54V2938H8352.04C8379.7 2938 8403.2 2942.83 8422.54 2952.5C8442.2 2962.17 8456.87 2975.5 8466.54 2992.5C8476.2 3009.17 8481.04 3027.83 8481.04 3048.5C8481.04 3071.83 8474.37 3092.67 8461.04 3111C8448.04 3129.33 8428.7 3142.33 8403.04 3150L8484.04 3289H8387.54ZM8294.04 3096H8347.04C8362.7 3096 8374.37 3092.17 8382.04 3084.5C8390.04 3076.83 8394.04 3066 8394.04 3052C8394.04 3038.67 8390.04 3028.17 8382.04 3020.5C8374.37 3012.83 8362.7 3009 8347.04 3009H8294.04V3096ZM8947.21 2938V3289H8861.71V3078.5L8783.21 3289H8714.21L8635.21 3078V3289H8549.71V2938H8650.71L8749.21 3181L8846.71 2938H8947.21Z" fill="#0B2F68"/>
</svg>
