<svg width="3008" height="4046" viewBox="0 0 3008 4046" fill="none" xmlns="http://www.w3.org/2000/svg">
<path d="M1473.44 2092.31C1737.71 2092.31 1951.94 2306.54 1951.94 2570.81C1951.94 2835.08 1737.71 3049.31 1473.44 3049.31C1446.34 3049.31 1419.77 3047.06 1393.91 3042.73L1595.49 2797.82C1676.25 2754.31 1731.13 2668.97 1731.13 2570.81C1731.13 2428.49 1615.76 2313.12 1473.44 2313.12C1331.12 2313.12 1215.75 2428.49 1215.75 2570.81C1215.75 2698.61 1308.78 2804.68 1430.81 2824.99L1279.77 3008.5C1111.99 2934.15 994.938 2766.15 994.938 2570.81C994.938 2306.54 1209.17 2092.31 1473.44 2092.31Z" fill="#FAC12E"/>
<path d="M1364.45 2739.31L1393.13 2615.08L1296.94 2531.52L1424.02 2520.47L1473.44 2403.31L1522.86 2520.47L1649.94 2531.52L1553.75 2615.08L1582.43 2739.31L1473.44 2673.44L1364.45 2739.31Z" fill="#FAC12E"/>
<path d="M867.438 1623.31C759.772 1796.65 566.938 2226.11 656.938 2557.31C587.438 2623.31 546.938 2642.81 477.938 2795.81C460.438 2732.81 298.938 2268.31 867.438 1623.31Z" fill="#0B2F68"/>
<path d="M1902.44 1106.81C2020.84 1035.21 2030.44 858.98 2020.44 779.813C2160.44 954.813 2373.44 1230.31 2566.44 1503.31C2671.94 1659.07 2736.23 1797.43 2749.44 1831.81C2581.04 1636.21 2350.94 1562.98 2256.94 1550.81C2165.44 1437.65 1966.44 1190.41 1902.44 1106.81Z" fill="#CC1C29"/>
<path d="M185.938 3296.31C270.272 3398.48 526.038 3604.41 874.438 3610.81C917.438 3634.81 1294.94 3812.31 1720.94 3610.81C2146.94 3409.31 2451.44 3044.81 2475.44 2537.31C2490.94 2835.81 2532.44 3470.31 1779.44 3859.81C941.438 4237.31 367.938 3669.81 185.938 3296.31Z" fill="#CC1C29"/>
<path d="M1573.44 4045.31C1787.44 3974.81 2309.81 3734.68 2551.94 3069.31C2805.94 2371.31 2439.44 2012.81 2375.94 1925.31C2142.44 1736.31 2155.34 1784.31 1976.94 1768.31C1798.54 1752.31 1619.94 1806.15 1552.94 1838.31C1657.94 1696.81 1956.24 1540.01 2337.44 1658.81C2820.94 1862.31 2891.32 2197.31 2928.94 2449.31C2966.56 2701.31 2891.94 3207.41 2551.94 3579.81C2207.94 3952.21 1756.27 4045.31 1573.44 4045.31Z" fill="#CC1C29"/>
<path d="M949.057 2415.54C934.357 2466.15 926.874 2519.79 927.785 2575.24C928.526 2620.34 934.777 2664.06 945.884 2705.77L802.047 2844.68C691.88 2951.08 688.823 3126.64 795.218 3236.8C901.614 3346.97 1077.17 3350.03 1187.34 3243.63L1344.16 3092.18C1386.63 3102.12 1430.99 3107.05 1476.58 3106.3C1538.56 3105.28 1597.92 3093.86 1653.04 3073.73L1341.14 3374.95C1149.96 3559.59 845.298 3554.28 660.662 3363.1C476.026 3171.92 481.332 2867.26 672.513 2682.62L949.057 2415.54ZM1601.72 1785.22C1792.9 1600.59 2097.56 1605.89 2282.2 1797.07C2466.84 1988.26 2461.53 2292.92 2270.35 2477.55L1968.29 2769.27C1994.79 2703.98 2008.87 2632.4 2007.64 2557.5C2007.1 2524.59 2003.62 2492.42 1997.47 2461.24L2135.49 2327.94C2245.66 2221.54 2248.72 2045.98 2142.32 1935.82C2035.93 1825.65 1860.37 1822.59 1750.2 1928.99L1625.21 2049.7C1572.65 2033.69 1516.73 2025.49 1458.84 2026.44C1416.14 2027.15 1374.69 2032.79 1335 2042.81L1601.72 1785.22Z" fill="#0B2F68"/>
<path d="M2395.44 3.31284C2417.44 -2.68701 2488.27 0.812858 2520.94 3.31284L3007.94 39.8128L2984.44 228.813C2836.61 216.813 2527.64 195.213 2474.44 204.813C2421.24 214.413 2159.27 344.813 2034.94 408.813V472.313C2035.6 478.98 2032.54 496.513 2014.94 513.313C1997.34 530.113 1936.94 570.98 1908.94 589.313C1918.77 677.813 1938.44 858.013 1938.44 870.813C1938.44 886.813 1934.94 946.813 1807.94 1107.81C1706.34 1236.61 1484.27 1503.48 1385.94 1620.81C1354.77 1664.31 1267.64 1734.91 1168.44 1669.31C1069.24 1603.71 887.105 1466.98 808.438 1406.81C669.604 1554.31 398.938 1940.81 307.938 2298.81C217.815 2653.36 324.938 2898.98 375.438 2974.31C458.938 3156.65 760.738 3499.31 1299.94 3411.31C1140.6 3527.31 685.687 3688.87 272.438 3268.81C-182.562 2806.31 33.9378 2109.81 196.438 1799.81C358.938 1489.81 588.438 1235.81 588.438 1235.81C583.938 1228.65 579.638 1208.71 598.438 1186.31C617.239 1163.91 882.605 839.646 1012.94 680.313C1022.44 671.813 1037.14 649.313 1019.94 627.313C1002.74 605.313 985.771 578.813 979.438 568.313C973.938 562.813 967.938 543.913 987.938 512.313C1012.94 472.813 1094.94 372.313 1202.44 296.813C1288.44 236.413 1389.94 175.98 1429.94 153.313C1448.44 140.646 1497.44 122.913 1545.44 153.313C1593.44 183.713 1643.1 220.98 1661.94 235.813L1673.44 246.313C1678.27 250.646 1694.34 255.313 1719.94 239.313C1745.54 223.313 1802.27 200.313 1827.44 190.813C1843.27 181.646 1881.74 171.613 1908.94 204.813C1925.08 224.522 1931.69 232.989 1933.7 235.883C1933.38 235.889 1933.12 235.863 1932.94 235.813C1934.29 237.235 1935.07 237.864 1933.7 235.883C1936.61 235.832 1945.31 233.245 1962.94 222.813C1982.54 211.213 2210.44 95.9795 2321.94 39.8128C2337.27 30.1461 2373.44 9.31281 2395.44 3.31284ZM1588.44 1060.81C1552.1 1049.15 1467.74 1026.71 1420.94 1030.31C1374.14 1033.91 1339.44 1099.48 1327.94 1131.81L1213.94 1475.31C1211.77 1479.31 1208.74 1488.11 1213.94 1491.31C1219.14 1494.51 1270.1 1492.65 1294.94 1491.31C1387.27 1382.15 1573.64 1157.41 1580.44 1131.81C1587.24 1106.21 1588.6 1073.81 1588.44 1060.81ZM1480.44 854.314C1440.24 820.815 1421.94 812.313 1348.94 814.313C1287.83 815.987 1228.94 879.48 1202.44 915.814L911.439 1260.31L1122.94 1451.81L1233.44 1099.81C1244.27 1069.65 1274.74 1002.61 1307.94 969.814C1341.14 937.014 1380.77 928.147 1397.94 928.314H1548.94C1535.11 909.481 1507.44 876.813 1480.44 854.314Z" fill="#0B2F68"/>
</svg>
